<?xml version="1.0" encoding="iso-8859-1"?>
<!-- Uploaded to: SVG Repo, www.svgrepo.com, Generator: SVG Repo Mixer Tools -->
<svg fill="#000000" height="800px" width="800px" version="1.1" id="Layer_1" xmlns="http://www.w3.org/2000/svg" xmlns:xlink="http://www.w3.org/1999/xlink" 
	 viewBox="0 0 512 512" xml:space="preserve">
<g>
	<g>
		<g>
			<path d="M362.665,170.667V192c0,11.776,9.557,21.333,21.333,21.333s21.333-9.557,21.333-21.333v-21.333
				c0-11.776-9.557-21.333-21.333-21.333S362.665,158.891,362.665,170.667z"/>
			<path d="M341.331,128h21.333c11.776,0,21.333-9.557,21.333-21.333s-9.557-21.333-21.333-21.333h-21.333
				c-11.776,0-21.333,9.557-21.333,21.333S329.555,128,341.331,128z"/>
			<path d="M149.331,341.333V320c0-11.776-9.557-21.333-21.333-21.333s-21.333,9.557-21.333,21.333v21.333
				c0,11.776,9.557,21.333,21.333,21.333S149.331,353.109,149.331,341.333z"/>
			<path d="M170.665,384h-21.333c-11.776,0-21.333,9.557-21.333,21.333s9.557,21.333,21.333,21.333h21.333
				c11.776,0,21.333-9.557,21.333-21.333S182.441,384,170.665,384z"/>
			<path d="M469.397,298.667h-64.066v-21.333c0-11.776-9.557-21.333-21.333-21.333s-21.333,9.557-21.333,21.333v21.333h-64.062
				c-23.488,0-42.603,19.115-42.603,42.603V384h-0.002c-11.776,0-21.333,9.557-21.333,21.333s9.557,21.333,21.333,21.333H256v42.731
				C256,492.885,275.115,512,298.603,512h170.795C492.885,512,512,492.885,512,469.397V341.269
				C512,317.781,492.885,298.667,469.397,298.667z M298.603,320v21.333h-0.021L298.603,320z M298.667,469.397l-0.011-63.895
				c0-0.057,0.009-0.112,0.009-0.169c0-0.057-0.008-0.112-0.009-0.17l-0.011-63.83l170.688-0.064l0.064,128.064L298.667,469.397z"/>
			<path d="M256,170.731V128c11.775-0.001,21.331-9.558,21.331-21.333S267.775,85.335,256,85.333V42.603
				C256,19.115,236.885,0,213.397,0H42.603C19.115,0,0,19.115,0,42.603v128.128c0,23.488,19.115,42.603,42.603,42.603h64.062v21.333
				c0,11.776,9.557,21.333,21.333,21.333s21.333-9.557,21.333-21.333v-21.333h64.066C236.885,213.333,256,194.219,256,170.731z
				 M42.603,42.667h-0.021l0.021-21.333V42.667z M42.667,170.731L42.645,42.667l170.688-0.064l0.032,63.395
				c-0.007,0.224-0.034,0.443-0.034,0.669c0,0.23,0.027,0.454,0.034,0.682l0.032,63.318L42.667,170.731z"/>
		</g>
	</g>
</g>
</svg>