<svg width="48" fill="#000000" xmlns="http://www.w3.org/2000/svg" height="48" viewBox="0 0 48 48" xmlns:xlink="http://www.w3.org/1999/xlink" enable-background="new 0 0 16 16">
<path d="m47.772,37.851c-.462-1.119-1.56-1.851-2.772-1.851h-3v-6c0-4.971-4.032-9-9-9h-3c-1.659,0-3-1.341-3-3v-15c0-1.656-1.341-3-3-3-1.656,0-3,1.344-3,3v15c0,1.659-1.344,3-3,3h-3c-4.971,0-9,4.029-9,9v6h-3c-1.212,0-2.31,.732-2.772,1.851-.462,1.122-.204,2.412 .651,3.27l6,6c.585,.585 1.353,.879 2.121,.879s1.536-.294 2.121-.879l6-6c.858-.858 1.113-2.148 .651-3.27-.462-1.119-1.56-1.851-2.772-1.851h-3v-6c0-1.656 1.344-3 3-3h3c2.316,0 4.404-.9 6-2.334 1.593,1.434 3.687,2.334 6,2.334h3c1.659,0 3,1.344 3,3v6h-3c-1.212,0-2.31,.732-2.772,1.851-.462,1.122-.204,2.412 .651,3.27l6,6c.585,.585 1.353,.879 2.121,.879s1.536-.294 2.121-.879l6-6c.858-.858 1.113-2.148 .651-3.27z"/>
</svg>
