<?xml version="1.0" encoding="iso-8859-1"?>
<!-- Uploaded to: SVG Repo, www.svgrepo.com, Generator: SVG Repo Mixer Tools -->
<svg height="800px" width="800px" version="1.1" id="Layer_1" xmlns="http://www.w3.org/2000/svg" xmlns:xlink="http://www.w3.org/1999/xlink" 
	 viewBox="0 0 512 512" xml:space="preserve">
<g>
	<g>
		<g>
			<path style="fill:#231F20;" d="M142.128,298.974l-20.499,11.839c-18.107-15.202-44.532-18.319-66.159-5.83
				c-27.69,15.986-37.157,51.333-21.172,79.016c15.917,27.573,51.2,37.235,79.016,21.173c21.687-12.522,32.192-36.917,28.05-60.207
				l20.536-11.851C153.565,322.966,146.848,311.463,142.128,298.974z"/>
			<path style="fill:#231F20;" d="M369.871,213.025l20.499-11.839c18.106,15.201,44.53,18.319,66.159,5.83
				c27.69-15.986,37.157-51.333,21.172-79.016c-15.984-27.69-51.332-37.159-79.016-21.173c-21.687,12.52-32.192,36.917-28.05,60.207
				L350.1,178.884C358.434,189.033,365.152,200.536,369.871,213.025z"/>
			<path style="fill:#231F20;" d="M256,160.573c-82.305,0-125.884,98.1-70.944,159.173c37.026,41.049,100.098,42.224,138.627,3.472
				c0.076-0.078,0.149-0.158,0.225-0.235C382.806,263.297,341.033,160.573,256,160.573z"/>
			<path style="fill:#231F20;" d="M236.281,112.224v23.66c13.045-2.138,26.389-2.139,39.438,0v-23.66
				c22.216-8.081,38.125-29.405,38.125-54.38C313.844,25.949,287.896,0,256,0c-31.896,0-57.844,25.949-57.844,57.844
				C198.156,82.819,214.066,104.143,236.281,112.224z"/>
			<path style="fill:#231F20;" d="M275.719,399.776v-23.66c-13.045,2.138-26.39,2.139-39.438,0v23.66
				c-22.216,8.081-38.125,29.405-38.125,54.38C198.156,486.051,224.103,512,256,512c31.896,0,57.844-25.949,57.844-57.844
				C313.844,429.181,297.934,407.857,275.719,399.776z"/>
			<path style="fill:#231F20;" d="M55.47,207.017c21.636,12.493,48.058,9.364,66.159-5.832l20.499,11.839
				c4.719-12.489,11.437-23.992,19.772-34.14l-20.536-11.851c4.144-23.292-6.365-47.688-28.05-60.207
				C85.625,90.84,50.282,100.315,34.299,128C18.31,155.689,27.785,191.034,55.47,207.017z"/>
			<path style="fill:#231F20;" d="M456.529,304.983c-21.628-12.487-48.052-9.371-66.159,5.83l-20.499-11.839
				c-4.719,12.489-11.437,23.992-19.772,34.14l20.536,11.851c-4.142,23.292,6.365,47.687,28.05,60.207
				c27.77,16.033,63.071,6.448,79.016-21.172C493.69,356.311,484.215,320.966,456.529,304.983z"/>
		</g>
	</g>
</g>
</svg>