<svg xmlns="http://www.w3.org/2000/svg" xmlns:xlink="http://www.w3.org/1999/xlink" width="500" zoomAndPan="magnify" viewBox="0 0 375 374.999991" height="500" preserveAspectRatio="xMidYMid meet" version="1.0"><defs><clipPath id="8154f61011"><path d="M 17.25 0 L 357.75 0 C 362.324219 0 366.710938 1.816406 369.949219 5.050781 C 373.183594 8.289062 375 12.675781 375 17.25 L 375 357.75 C 375 362.324219 373.183594 366.710938 369.949219 369.949219 C 366.710938 373.183594 362.324219 375 357.75 375 L 17.25 375 C 12.675781 375 8.289062 373.183594 5.050781 369.949219 C 1.816406 366.710938 0 362.324219 0 357.75 L 0 17.25 C 0 12.675781 1.816406 8.289062 5.050781 5.050781 C 8.289062 1.816406 12.675781 0 17.25 0 Z M 17.25 0 " clip-rule="nonzero"/></clipPath><clipPath id="dda0f5c72d"><path d="M 0 0 L 375 0 L 375 375 L 0 375 Z M 0 0 " clip-rule="nonzero"/></clipPath><clipPath id="192d4d5d89"><path d="M 17.25 0 L 357.75 0 C 362.324219 0 366.710938 1.816406 369.949219 5.050781 C 373.183594 8.289062 375 12.675781 375 17.25 L 375 357.75 C 375 362.324219 373.183594 366.710938 369.949219 369.949219 C 366.710938 373.183594 362.324219 375 357.75 375 L 17.25 375 C 12.675781 375 8.289062 373.183594 5.050781 369.949219 C 1.816406 366.710938 0 362.324219 0 357.75 L 0 17.25 C 0 12.675781 1.816406 8.289062 5.050781 5.050781 C 8.289062 1.816406 12.675781 0 17.25 0 Z M 17.25 0 " clip-rule="nonzero"/></clipPath><clipPath id="3d6f6da495"><rect x="0" width="375" y="0" height="375"/></clipPath><clipPath id="5ebd8c013e"><path d="M 37.5 275.226562 L 92.347656 275.226562 L 92.347656 330.074219 L 37.5 330.074219 Z M 37.5 275.226562 " clip-rule="nonzero"/></clipPath><clipPath id="7eef4f6ce2"><path d="M 64.921875 275.226562 C 49.777344 275.226562 37.5 287.503906 37.5 302.652344 C 37.5 317.796875 49.777344 330.074219 64.921875 330.074219 C 80.070312 330.074219 92.347656 317.796875 92.347656 302.652344 C 92.347656 287.503906 80.070312 275.226562 64.921875 275.226562 Z M 64.921875 275.226562 " clip-rule="nonzero"/></clipPath><clipPath id="b7c675c518"><path d="M 0.5 0.226562 L 55.347656 0.226562 L 55.347656 55.074219 L 0.5 55.074219 Z M 0.5 0.226562 " clip-rule="nonzero"/></clipPath><clipPath id="5c9c104f49"><path d="M 27.921875 0.226562 C 12.777344 0.226562 0.5 12.503906 0.5 27.652344 C 0.5 42.796875 12.777344 55.074219 27.921875 55.074219 C 43.070312 55.074219 55.347656 42.796875 55.347656 27.652344 C 55.347656 12.503906 43.070312 0.226562 27.921875 0.226562 Z M 27.921875 0.226562 " clip-rule="nonzero"/></clipPath><clipPath id="fa312e255d"><rect x="0" width="56" y="0" height="56"/></clipPath><clipPath id="121b575e12"><path d="M 153.0625 18.535156 L 221.9375 18.535156 L 221.9375 87.40625 L 153.0625 87.40625 Z M 153.0625 18.535156 " clip-rule="nonzero"/></clipPath><clipPath id="d291227263"><path d="M 187.5 18.535156 C 168.480469 18.535156 153.0625 33.953125 153.0625 52.96875 C 153.0625 71.988281 168.480469 87.40625 187.5 87.40625 C 206.519531 87.40625 221.9375 71.988281 221.9375 52.96875 C 221.9375 33.953125 206.519531 18.535156 187.5 18.535156 Z M 187.5 18.535156 " clip-rule="nonzero"/></clipPath><clipPath id="60a546ba67"><path d="M 0.0625 0.535156 L 68.9375 0.535156 L 68.9375 69.40625 L 0.0625 69.40625 Z M 0.0625 0.535156 " clip-rule="nonzero"/></clipPath><clipPath id="f3c3e06a32"><path d="M 34.5 0.535156 C 15.480469 0.535156 0.0625 15.953125 0.0625 34.96875 C 0.0625 53.988281 15.480469 69.40625 34.5 69.40625 C 53.519531 69.40625 68.9375 53.988281 68.9375 34.96875 C 68.9375 15.953125 53.519531 0.535156 34.5 0.535156 Z M 34.5 0.535156 " clip-rule="nonzero"/></clipPath><clipPath id="fa361f4249"><rect x="0" width="69" y="0" height="70"/></clipPath><clipPath id="b033718ad5"><path d="M 222.023438 160.074219 L 276.871094 160.074219 L 276.871094 214.921875 L 222.023438 214.921875 Z M 222.023438 160.074219 " clip-rule="nonzero"/></clipPath><clipPath id="f4d5adb616"><path d="M 249.449219 160.074219 C 234.300781 160.074219 222.023438 172.355469 222.023438 187.5 C 222.023438 202.644531 234.300781 214.921875 249.449219 214.921875 C 264.59375 214.921875 276.871094 202.644531 276.871094 187.5 C 276.871094 172.355469 264.59375 160.074219 249.449219 160.074219 Z M 249.449219 160.074219 " clip-rule="nonzero"/></clipPath><clipPath id="5243080d02"><path d="M 0.0234375 0.0742188 L 54.871094 0.0742188 L 54.871094 54.921875 L 0.0234375 54.921875 Z M 0.0234375 0.0742188 " clip-rule="nonzero"/></clipPath><clipPath id="bbd3990981"><path d="M 27.449219 0.0742188 C 12.300781 0.0742188 0.0234375 12.355469 0.0234375 27.5 C 0.0234375 42.644531 12.300781 54.921875 27.449219 54.921875 C 42.59375 54.921875 54.871094 42.644531 54.871094 27.5 C 54.871094 12.355469 42.59375 0.0742188 27.449219 0.0742188 Z M 27.449219 0.0742188 " clip-rule="nonzero"/></clipPath><clipPath id="4e5c3ac742"><rect x="0" width="55" y="0" height="55"/></clipPath><clipPath id="9e06c4adf3"><path d="M 282.652344 275.226562 L 337.5 275.226562 L 337.5 330.074219 L 282.652344 330.074219 Z M 282.652344 275.226562 " clip-rule="nonzero"/></clipPath><clipPath id="94d09c1184"><path d="M 310.078125 275.226562 C 294.929688 275.226562 282.652344 287.503906 282.652344 302.652344 C 282.652344 317.796875 294.929688 330.074219 310.078125 330.074219 C 325.222656 330.074219 337.5 317.796875 337.5 302.652344 C 337.5 287.503906 325.222656 275.226562 310.078125 275.226562 Z M 310.078125 275.226562 " clip-rule="nonzero"/></clipPath><clipPath id="db58354e79"><path d="M 0.652344 0.226562 L 55.5 0.226562 L 55.5 55.074219 L 0.652344 55.074219 Z M 0.652344 0.226562 " clip-rule="nonzero"/></clipPath><clipPath id="6450000950"><path d="M 28.078125 0.226562 C 12.929688 0.226562 0.652344 12.503906 0.652344 27.652344 C 0.652344 42.796875 12.929688 55.074219 28.078125 55.074219 C 43.222656 55.074219 55.5 42.796875 55.5 27.652344 C 55.5 12.503906 43.222656 0.226562 28.078125 0.226562 Z M 28.078125 0.226562 " clip-rule="nonzero"/></clipPath><clipPath id="786219c3ac"><rect x="0" width="56" y="0" height="56"/></clipPath><clipPath id="0277d12659"><path d="M 30.488281 268.214844 L 99.359375 268.214844 L 99.359375 337.085938 L 30.488281 337.085938 Z M 30.488281 268.214844 " clip-rule="nonzero"/></clipPath><clipPath id="e61a4ef6d3"><path d="M 64.921875 268.214844 C 45.90625 268.214844 30.488281 283.632812 30.488281 302.652344 C 30.488281 321.667969 45.90625 337.085938 64.921875 337.085938 C 83.941406 337.085938 99.359375 321.667969 99.359375 302.652344 C 99.359375 283.632812 83.941406 268.214844 64.921875 268.214844 Z M 64.921875 268.214844 " clip-rule="nonzero"/></clipPath><clipPath id="44651a2bb9"><path d="M 0.488281 0.214844 L 69.359375 0.214844 L 69.359375 69.085938 L 0.488281 69.085938 Z M 0.488281 0.214844 " clip-rule="nonzero"/></clipPath><clipPath id="fc1aa40946"><path d="M 34.921875 0.214844 C 15.90625 0.214844 0.488281 15.632812 0.488281 34.652344 C 0.488281 53.667969 15.90625 69.085938 34.921875 69.085938 C 53.941406 69.085938 69.359375 53.667969 69.359375 34.652344 C 69.359375 15.632812 53.941406 0.214844 34.921875 0.214844 Z M 34.921875 0.214844 " clip-rule="nonzero"/></clipPath><clipPath id="c3c1915ff8"><rect x="0" width="70" y="0" height="70"/></clipPath><clipPath id="c219f061d0"><path d="M 213.78125 153.0625 L 282.652344 153.0625 L 282.652344 221.9375 L 213.78125 221.9375 Z M 213.78125 153.0625 " clip-rule="nonzero"/></clipPath><clipPath id="55fe2af638"><path d="M 248.214844 153.0625 C 229.199219 153.0625 213.78125 168.480469 213.78125 187.5 C 213.78125 206.519531 229.199219 221.9375 248.214844 221.9375 C 267.234375 221.9375 282.652344 206.519531 282.652344 187.5 C 282.652344 168.480469 267.234375 153.0625 248.214844 153.0625 Z M 248.214844 153.0625 " clip-rule="nonzero"/></clipPath><clipPath id="ac4c9ef65b"><path d="M 0.78125 0.0625 L 69.652344 0.0625 L 69.652344 68.9375 L 0.78125 68.9375 Z M 0.78125 0.0625 " clip-rule="nonzero"/></clipPath><clipPath id="bced4fadd6"><path d="M 35.214844 0.0625 C 16.199219 0.0625 0.78125 15.480469 0.78125 34.5 C 0.78125 53.519531 16.199219 68.9375 35.214844 68.9375 C 54.234375 68.9375 69.652344 53.519531 69.652344 34.5 C 69.652344 15.480469 54.234375 0.0625 35.214844 0.0625 Z M 35.214844 0.0625 " clip-rule="nonzero"/></clipPath><clipPath id="89af435dc6"><rect x="0" width="70" y="0" height="69"/></clipPath><clipPath id="a90866b2f3"><path d="M 275.167969 271.851562 L 344.039062 271.851562 L 344.039062 340.722656 L 275.167969 340.722656 Z M 275.167969 271.851562 " clip-rule="nonzero"/></clipPath><clipPath id="fb6f9bc92c"><path d="M 309.601562 271.851562 C 290.585938 271.851562 275.167969 287.269531 275.167969 306.289062 C 275.167969 325.304688 290.585938 340.722656 309.601562 340.722656 C 328.621094 340.722656 344.039062 325.304688 344.039062 306.289062 C 344.039062 287.269531 328.621094 271.851562 309.601562 271.851562 Z M 309.601562 271.851562 " clip-rule="nonzero"/></clipPath><clipPath id="36348602f4"><path d="M 0.167969 0.851562 L 69.039062 0.851562 L 69.039062 69.722656 L 0.167969 69.722656 Z M 0.167969 0.851562 " clip-rule="nonzero"/></clipPath><clipPath id="20b5af483f"><path d="M 34.601562 0.851562 C 15.585938 0.851562 0.167969 16.269531 0.167969 35.289062 C 0.167969 54.304688 15.585938 69.722656 34.601562 69.722656 C 53.621094 69.722656 69.039062 54.304688 69.039062 35.289062 C 69.039062 16.269531 53.621094 0.851562 34.601562 0.851562 Z M 34.601562 0.851562 " clip-rule="nonzero"/></clipPath><clipPath id="581a7d9963"><rect x="0" width="70" y="0" height="70"/></clipPath></defs><g clip-path="url(#8154f61011)"><g transform="matrix(1, 0, 0, 1, 0, 0)"><g clip-path="url(#3d6f6da495)"><g clip-path="url(#dda0f5c72d)"><g clip-path="url(#192d4d5d89)"><rect x="-82.5" width="540" fill="#fdf8ed" height="539.999987" y="-82.499998" fill-opacity="1"/></g></g></g></g><path stroke-linecap="butt" transform="matrix(0.75, 0, 0, 0.75, 0.0000045, 0)" fill="none" stroke-linejoin="miter" d="M 22.999997 0 L 477.000056 0 C 483.099015 0 488.947974 2.421875 493.265683 6.734376 C 497.578184 11.052085 500.000059 16.901044 500.000059 23.000003 L 500.000059 477.000062 C 500.000059 483.099021 497.578184 488.94798 493.265683 493.265689 C 488.947974 497.57819 483.099015 500.000065 477.000056 500.000065 L 22.999997 500.000065 C 16.901038 500.000065 11.052079 497.57819 6.73437 493.265689 C 2.421869 488.94798 -0.000006 483.099021 -0.000006 477.000062 L -0.000006 23.000003 C -0.000006 16.901044 2.421869 11.052085 6.73437 6.734376 C 11.052079 2.421875 16.901038 0 22.999997 0 Z M 22.999997 0 " stroke="#000000" stroke-width="12" stroke-opacity="1" stroke-miterlimit="4"/></g><g clip-path="url(#5ebd8c013e)"><g clip-path="url(#7eef4f6ce2)"><g transform="matrix(1, 0, 0, 1, 37, 275)"><g clip-path="url(#fa312e255d)"><g clip-path="url(#b7c675c518)"><g clip-path="url(#5c9c104f49)"><path fill="#000000" d="M 0.5 0.226562 L 55.347656 0.226562 L 55.347656 55.074219 L 0.5 55.074219 Z M 0.5 0.226562 " fill-opacity="1" fill-rule="nonzero"/></g></g></g></g></g></g><path stroke-linecap="butt" transform="matrix(0.321884, -0.677414, 0.677414, 0.321884, 56.78115, 298.78744)" fill="none" stroke-linejoin="miter" d="M 0.00196421 11.999115 L 380.850724 11.999971 " stroke="#000000" stroke-width="24" stroke-opacity="1" stroke-miterlimit="4"/><path stroke-linecap="butt" transform="matrix(-0.298066, -0.688227, 0.688227, -0.298066, 241.182733, 185.044646)" fill="none" stroke-linejoin="miter" d="M -0.00107134 11.999461 L 186.715292 12.001626 " stroke="#000000" stroke-width="24" stroke-opacity="1" stroke-miterlimit="4"/><path stroke-linecap="butt" transform="matrix(-0.345003, -0.665938, 0.665938, -0.345003, 301.609878, 306.79041)" fill="none" stroke-linejoin="miter" d="M 0.00203059 12.001701 L 161.318385 11.999216 " stroke="#000000" stroke-width="24" stroke-opacity="1" stroke-miterlimit="4"/><path stroke-linecap="butt" transform="matrix(0.624775, -0.414916, 0.414916, 0.624775, 70.383295, 298.789639)" fill="none" stroke-linejoin="miter" d="M 0.00241786 11.998744 L 267.671699 12.001589 " stroke="#000000" stroke-width="24" stroke-opacity="1" stroke-miterlimit="4"/><g clip-path="url(#121b575e12)"><g clip-path="url(#d291227263)"><g transform="matrix(1, 0, 0, 1, 153, 18)"><g clip-path="url(#fa361f4249)"><g clip-path="url(#60a546ba67)"><g clip-path="url(#f3c3e06a32)"><path fill="#000000" d="M 0.0625 0.535156 L 68.9375 0.535156 L 68.9375 69.40625 L 0.0625 69.40625 Z M 0.0625 0.535156 " fill-opacity="1" fill-rule="nonzero"/></g></g></g></g></g></g><g clip-path="url(#b033718ad5)"><g clip-path="url(#f4d5adb616)"><g transform="matrix(1, 0, 0, 1, 222, 160)"><g clip-path="url(#4e5c3ac742)"><g clip-path="url(#5243080d02)"><g clip-path="url(#bbd3990981)"><path fill="#000000" d="M 0.0234375 0.0742188 L 54.871094 0.0742188 L 54.871094 54.921875 L 0.0234375 54.921875 Z M 0.0234375 0.0742188 " fill-opacity="1" fill-rule="nonzero"/></g></g></g></g></g></g><g clip-path="url(#9e06c4adf3)"><g clip-path="url(#94d09c1184)"><g transform="matrix(1, 0, 0, 1, 282, 275)"><g clip-path="url(#786219c3ac)"><g clip-path="url(#db58354e79)"><g clip-path="url(#6450000950)"><path fill="#000000" d="M 0.652344 0.226562 L 55.5 0.226562 L 55.5 55.074219 L 0.652344 55.074219 Z M 0.652344 0.226562 " fill-opacity="1" fill-rule="nonzero"/></g></g></g></g></g></g><g clip-path="url(#0277d12659)"><g clip-path="url(#e61a4ef6d3)"><g transform="matrix(1, 0, 0, 1, 30, 268)"><g clip-path="url(#c3c1915ff8)"><g clip-path="url(#44651a2bb9)"><g clip-path="url(#fc1aa40946)"><path fill="#000000" d="M 0.488281 0.214844 L 69.359375 0.214844 L 69.359375 69.085938 L 0.488281 69.085938 Z M 0.488281 0.214844 " fill-opacity="1" fill-rule="nonzero"/></g></g></g></g></g></g><g clip-path="url(#c219f061d0)"><g clip-path="url(#55fe2af638)"><g transform="matrix(1, 0, 0, 1, 213, 153)"><g clip-path="url(#89af435dc6)"><g clip-path="url(#ac4c9ef65b)"><g clip-path="url(#bced4fadd6)"><path fill="#000000" d="M 0.78125 0.0625 L 69.652344 0.0625 L 69.652344 68.9375 L 0.78125 68.9375 Z M 0.78125 0.0625 " fill-opacity="1" fill-rule="nonzero"/></g></g></g></g></g></g><g clip-path="url(#a90866b2f3)"><g clip-path="url(#fb6f9bc92c)"><g transform="matrix(1, 0, 0, 1, 275, 271)"><g clip-path="url(#581a7d9963)"><g clip-path="url(#36348602f4)"><g clip-path="url(#20b5af483f)"><path fill="#000000" d="M 0.167969 0.851562 L 69.039062 0.851562 L 69.039062 69.722656 L 0.167969 69.722656 Z M 0.167969 0.851562 " fill-opacity="1" fill-rule="nonzero"/></g></g></g></g></g></g></svg>